<svg width="561" height="705" viewBox="0 0 561 705" fill="none" xmlns="http://www.w3.org/2000/svg">
<rect x="11.2188" y="-2.98442" width="552.226" height="106.096" rx="53.048" transform="matrix(0.452419 -0.891806 0.835736 0.549132 8.63741 645.514)" stroke="#C2C2C2" stroke-width="17.4184"/>
<rect x="3.32803" y="-12.5528" width="552.175" height="106.108" rx="53.0542" transform="matrix(-0.453118 -0.89145 0.835245 -0.549878 473.145 688.04)" stroke="#C2C2C2" stroke-width="17.4184"/>
<mask id="path-3-inside-1_804_8" fill="white">
<path d="M343.086 458.805C343.086 489.92 336.044 519.761 323.508 541.763C310.972 563.765 293.969 576.125 276.241 576.125C258.512 576.125 241.51 563.765 228.974 541.763C216.438 519.761 209.395 489.92 209.395 458.805H221.31C221.31 484.374 227.097 508.896 237.399 526.976C247.7 545.057 261.672 555.214 276.241 555.214C290.81 555.214 304.781 545.057 315.083 526.976C325.385 508.896 331.172 484.374 331.172 458.805H343.086Z"/>
</mask>
<path d="M343.086 458.805C343.086 489.92 336.044 519.761 323.508 541.763C310.972 563.765 293.969 576.125 276.241 576.125C258.512 576.125 241.51 563.765 228.974 541.763C216.438 519.761 209.395 489.92 209.395 458.805H221.31C221.31 484.374 227.097 508.896 237.399 526.976C247.7 545.057 261.672 555.214 276.241 555.214C290.81 555.214 304.781 545.057 315.083 526.976C325.385 508.896 331.172 484.374 331.172 458.805H343.086Z" fill="#C2C2C2" stroke="#C2C2C2" stroke-width="3.48369" mask="url(#path-3-inside-1_804_8)"/>
<circle cx="275.5" cy="68.5" r="68.5" fill="#FF0000"/>
</svg>
