<svg width="191" height="185" viewBox="0 0 191 185" fill="none" xmlns="http://www.w3.org/2000/svg">
<path d="M172.435 57.475L157.857 74.676C159.671 80.905 160.644 87.495 160.644 94.314C160.644 133.185 129.029 164.8 90.158 164.8C51.287 164.8 19.672 133.185 19.672 94.314C19.672 55.443 51.287 23.828 90.158 23.828C102.649 23.828 114.397 27.095 124.582 32.822L137.476 17.61C123.718 9.07499 107.5 4.15799 90.157 4.15799C40.445 4.15799 0 44.603 0 94.315C0 144.027 40.445 184.472 90.157 184.472C139.869 184.472 180.314 144.027 180.314 94.315C180.314 81.2 177.494 68.72 172.435 57.475Z" fill="#8685EF"/>
<path d="M100.099 125.893L55.57 81.364L77.207 59.727L98.246 80.767L166.733 0L190.07 19.789L100.099 125.893Z" fill="#8685EF"/>
</svg>
