<svg width="623" height="742" viewBox="0 0 623 742" fill="none" xmlns="http://www.w3.org/2000/svg">
<g clip-path="url(#clip0_925_8)">
<path d="M474 662C474 666.655 472.151 671.12 468.86 674.413C465.569 677.706 461.105 679.557 456.45 679.56H21C6.46 679.56 0 661.2 0 651.5L7.86 116.38C7.86 111.723 9.71007 107.256 13.0032 103.963C16.2963 100.67 20.7628 98.82 25.42 98.82L450.27 91.08C459.97 91.08 474.03 98.26 474.03 109.56L474 662Z" fill="#8685EF"/>
<path d="M450.27 91.08H19.21C9.5119 91.08 1.65002 98.9419 1.65002 108.64V654.27C1.65002 663.968 9.5119 671.83 19.21 671.83H450.27C459.968 671.83 467.83 663.968 467.83 654.27V108.64C467.83 98.9419 459.968 91.08 450.27 91.08Z" fill="#6C6BC3"/>
<path d="M443.7 624.2C443.7 628.287 442.076 632.207 439.187 635.096C436.297 637.986 432.377 639.61 428.29 639.61L45.6 638.75C43.5768 638.75 41.5734 638.351 39.7044 637.577C37.8353 636.802 36.1372 635.667 34.707 634.236C33.2769 632.805 32.1427 631.106 31.3694 629.236C30.5961 627.367 30.1987 625.363 30.2 623.34L34.61 145.34C34.6285 141.269 36.2575 137.37 39.1411 134.496C42.0247 131.621 45.9286 130.005 50 130L428.27 126.67C432.357 126.67 436.277 128.294 439.167 131.183C442.056 134.073 443.68 137.993 443.68 142.08L443.7 624.2Z" fill="#EEEFEF"/>
<path d="M423.88 126.64H45.61C37.0993 126.64 30.2 133.539 30.2 142.05V620.87C30.2 629.381 37.0993 636.28 45.61 636.28H423.88C432.391 636.28 439.29 629.381 439.29 620.87V142.05C439.29 133.539 432.391 126.64 423.88 126.64Z" fill="#EEEFEF"/>
<path opacity="0.1" d="M111.81 91.09V156.81C111.81 166.51 120.06 174.37 130.23 174.37H339.23C349.4 174.37 357.64 166.51 357.64 156.81V91.09H111.81Z" fill="#231F20"/>
<path d="M334.85 62.55H319.76V52.61C319.747 49.2593 318.406 46.0505 316.031 43.6868C313.656 41.3231 310.441 39.9973 307.09 40H288.15V12.67C288.15 9.30971 286.815 6.08704 284.439 3.71096C282.063 1.33487 278.84 0 275.48 0L194.88 0C191.52 0 188.297 1.33487 185.921 3.71096C183.545 6.08704 182.21 9.30971 182.21 12.67V40H163.27C159.92 40 156.706 41.3266 154.332 43.6897C151.958 46.0528 150.616 49.2601 150.6 52.61V62.55H135.52C130.87 62.5606 126.414 64.4153 123.129 67.7073C119.845 70.9993 118 75.4597 118 80.11V149C118 153.657 119.85 158.124 123.143 161.417C126.436 164.71 130.903 166.56 135.56 166.56H334.85C339.507 166.56 343.974 164.71 347.267 161.417C350.56 158.124 352.41 153.657 352.41 149V80.11C352.41 75.4528 350.56 70.9863 347.267 67.6932C343.974 64.4001 339.507 62.55 334.85 62.55ZM274.31 57.55C274.31 59.3084 273.611 60.9948 272.368 62.2381C271.125 63.4815 269.438 64.18 267.68 64.18H203.56C201.802 64.18 200.115 63.4815 198.872 62.2381C197.629 60.9948 196.93 59.3084 196.93 57.55V19.25C196.93 18.3798 197.102 17.5182 197.435 16.7143C197.768 15.9105 198.257 15.1803 198.872 14.5654C199.488 13.9506 200.219 13.4631 201.024 13.131C201.828 12.7989 202.69 12.6287 203.56 12.63H267.68C268.55 12.6287 269.412 12.7989 270.216 13.131C271.021 13.4631 271.752 13.9506 272.368 14.5654C272.983 15.1803 273.472 15.9105 273.805 16.7143C274.138 17.5182 274.31 18.3798 274.31 19.25V57.55Z" fill="#8685EF"/>
<path d="M92.42 150.52C92.42 152.779 91.7503 154.987 90.4954 156.865C89.2406 158.743 87.457 160.206 85.3703 161.071C83.2835 161.935 80.9874 162.161 78.7721 161.721C76.5568 161.28 74.522 160.192 72.9249 158.595C71.3278 156.998 70.2401 154.963 69.7995 152.748C69.3588 150.533 69.585 148.236 70.4493 146.15C71.3137 144.063 72.7774 142.279 74.6554 141.025C76.5334 139.77 78.7414 139.1 81 139.1C82.5001 139.099 83.9857 139.393 85.3718 139.967C86.758 140.54 88.0174 141.381 89.0781 142.442C90.1388 143.503 90.98 144.762 91.5534 146.148C92.1268 147.534 92.4213 149.02 92.42 150.52Z" fill="#6C6BC3"/>
<path d="M407.31 150.52C407.308 152.776 406.637 154.981 405.382 156.856C404.127 158.731 402.345 160.192 400.259 161.054C398.174 161.916 395.881 162.141 393.668 161.7C391.455 161.258 389.423 160.171 387.828 158.575C386.234 156.978 385.148 154.945 384.709 152.732C384.269 150.519 384.496 148.226 385.359 146.141C386.223 144.057 387.686 142.276 389.562 141.022C391.438 139.769 393.644 139.1 395.9 139.1C397.399 139.1 398.884 139.395 400.269 139.969C401.654 140.544 402.912 141.385 403.972 142.445C405.031 143.506 405.871 144.765 406.444 146.151C407.017 147.536 407.311 149.021 407.31 150.52Z" fill="#6C6BC3"/>
<path d="M389.94 227.2H334.36C331.068 227.2 328.4 229.868 328.4 233.16V288.74C328.4 292.032 331.068 294.7 334.36 294.7H389.94C393.232 294.7 395.9 292.032 395.9 288.74V233.16C395.9 229.868 393.232 227.2 389.94 227.2Z" fill="#DCDDDE"/>
<path d="M389.94 328.23H334.36C331.068 328.23 328.4 330.898 328.4 334.19V389.77C328.4 393.062 331.068 395.73 334.36 395.73H389.94C393.232 395.73 395.9 393.062 395.9 389.77V334.19C395.9 330.898 393.232 328.23 389.94 328.23Z" fill="#DCDDDE"/>
<path d="M389.94 429.27H334.36C331.068 429.27 328.4 431.938 328.4 435.23V490.81C328.4 494.102 331.068 496.77 334.36 496.77H389.94C393.232 496.77 395.9 494.102 395.9 490.81V435.23C395.9 431.938 393.232 429.27 389.94 429.27Z" fill="#DCDDDE"/>
<path d="M389.94 530.3H334.36C331.068 530.3 328.4 532.968 328.4 536.26V591.84C328.4 595.132 331.068 597.8 334.36 597.8H389.94C393.232 597.8 395.9 595.132 395.9 591.84V536.26C395.9 532.968 393.232 530.3 389.94 530.3Z" fill="#DCDDDE"/>
<path d="M292.77 238.23H83.9V289.69H292.77V238.23Z" fill="#DCDDDE"/>
<path d="M292.77 337.26H83.9V388.72H292.77V337.26Z" fill="#DCDDDE"/>
<path d="M292.77 436.28H83.9V487.74H292.77V436.28Z" fill="#DCDDDE"/>
<path d="M292.77 535.31H83.9V586.77H292.77V535.31Z" fill="#DCDDDE"/>
<path d="M352.63 292.1C350.249 292.098 347.965 291.152 346.28 289.47L329.79 272.81C328.249 271.096 327.425 268.857 327.486 266.554C327.547 264.25 328.489 262.058 330.119 260.429C331.748 258.799 333.94 257.857 336.244 257.796C338.547 257.735 340.787 258.559 342.5 260.1L352.33 270.1L381.15 238.53C382.789 236.899 384.993 235.961 387.304 235.911C389.616 235.861 391.858 236.703 393.566 238.262C395.274 239.82 396.316 241.976 396.477 244.283C396.638 246.589 395.905 248.869 394.43 250.65L359.27 289.17C358.454 290.07 357.463 290.794 356.357 291.298C355.252 291.802 354.055 292.075 352.84 292.1H352.63Z" fill="black"/>
<path d="M591.64 615.38C603.42 586.38 622.35 547.88 622.35 547.88L576.27 535.88L531.74 548C531.74 548 550.05 586.11 562.14 615.41L591.64 615.38Z" fill="#D6C7B9"/>
<path d="M569.16 632.09C575.5 646.69 582.88 636.96 584.9 631.98L591.64 615.38H562.14C564.9 622.08 567.34 627.9 569.16 632.09Z" fill="black"/>
<path d="M592.34 208.4C592.34 201.4 599.19 195.75 607.65 195.75C616.11 195.75 622.97 201.41 622.97 208.4V544.3C622.97 551.3 616.11 556.95 607.65 556.95C599.19 556.95 592.34 551.29 592.34 544.3V208.4Z" fill="black"/>
<path d="M561.71 208.4C561.71 201.4 568.57 195.75 577.02 195.75C585.48 195.75 592.34 201.41 592.34 208.4V544.3C592.34 551.3 585.48 556.95 577.02 556.95C568.57 556.95 561.71 551.29 561.71 544.3V208.4Z" fill="white"/>
<path d="M531.08 208.4C531.08 201.4 537.94 195.75 546.39 195.75C554.85 195.75 561.71 201.41 561.71 208.4V544.3C561.71 551.3 554.85 556.95 546.39 556.95C537.94 556.95 531.08 551.29 531.08 544.3V208.4Z" fill="black"/>
<path d="M622.97 194.07H531.08V216.54H622.97V194.07Z" fill="#D6C7B9"/>
<path d="M531.08 194.07H623V170.61C623 170.25 623 169.89 623 169.54C623 151.92 602.43 137.64 577 137.64C551.57 137.64 531.06 151.92 531.06 169.54C531.06 169.89 531.06 170.25 531.06 170.61L531.08 194.07Z" fill="#6C6BC3"/>
</g>
<defs>
<clipPath id="clip0_925_8">
<rect width="622.97" height="741.21" fill="white"/>
</clipPath>
</defs>
</svg>
